<mxfile host="app.diagrams.net" modified="2023-08-15T11:39:01.333Z" agent="Mozilla/5.0 (Macintosh; Intel Mac OS X 10_15_7) AppleWebKit/537.36 (KHTML, like Gecko) Chrome/115.0.0.0 Safari/537.36" etag="_Lj3tZwArhfRoqjbgah3" version="21.6.5" type="github">
  <diagram name="第 1 页" id="rp87v1Rvojw5iXjgeMau">
    <mxGraphModel dx="915" dy="381" grid="1" gridSize="10" guides="1" tooltips="1" connect="1" arrows="1" fold="1" page="1" pageScale="1" pageWidth="827" pageHeight="1169" math="0" shadow="0">
      <root>
        <mxCell id="0" />
        <mxCell id="1" parent="0" />
        <mxCell id="azUSpkt_eAWuSsv6hzU4-11" value="" style="edgeStyle=orthogonalEdgeStyle;rounded=0;orthogonalLoop=1;jettySize=auto;html=1;" parent="1" source="azUSpkt_eAWuSsv6hzU4-1" target="azUSpkt_eAWuSsv6hzU4-2" edge="1">
          <mxGeometry relative="1" as="geometry" />
        </mxCell>
        <mxCell id="azUSpkt_eAWuSsv6hzU4-1" value="app启动" style="rounded=1;whiteSpace=wrap;html=1;" parent="1" vertex="1">
          <mxGeometry x="20" y="300" width="120" height="60" as="geometry" />
        </mxCell>
        <mxCell id="azUSpkt_eAWuSsv6hzU4-9" value="" style="edgeStyle=orthogonalEdgeStyle;rounded=0;orthogonalLoop=1;jettySize=auto;html=1;" parent="1" source="azUSpkt_eAWuSsv6hzU4-2" target="azUSpkt_eAWuSsv6hzU4-8" edge="1">
          <mxGeometry relative="1" as="geometry" />
        </mxCell>
        <mxCell id="azUSpkt_eAWuSsv6hzU4-21" style="edgeStyle=orthogonalEdgeStyle;rounded=0;orthogonalLoop=1;jettySize=auto;html=1;entryX=1;entryY=0.5;entryDx=0;entryDy=0;" parent="1" source="azUSpkt_eAWuSsv6hzU4-2" target="azUSpkt_eAWuSsv6hzU4-16" edge="1">
          <mxGeometry relative="1" as="geometry">
            <mxPoint x="190" y="610" as="targetPoint" />
            <Array as="points">
              <mxPoint x="160" y="430" />
              <mxPoint x="160" y="640" />
            </Array>
          </mxGeometry>
        </mxCell>
        <mxCell id="azUSpkt_eAWuSsv6hzU4-2" value="版本是否改变" style="rhombus;whiteSpace=wrap;html=1;" parent="1" vertex="1">
          <mxGeometry x="25" y="390" width="110" height="80" as="geometry" />
        </mxCell>
        <mxCell id="azUSpkt_eAWuSsv6hzU4-25" value="" style="edgeStyle=orthogonalEdgeStyle;rounded=0;orthogonalLoop=1;jettySize=auto;html=1;" parent="1" source="azUSpkt_eAWuSsv6hzU4-6" target="azUSpkt_eAWuSsv6hzU4-23" edge="1">
          <mxGeometry relative="1" as="geometry" />
        </mxCell>
        <mxCell id="azUSpkt_eAWuSsv6hzU4-42" style="edgeStyle=orthogonalEdgeStyle;rounded=0;orthogonalLoop=1;jettySize=auto;html=1;entryX=0.5;entryY=0;entryDx=0;entryDy=0;" parent="1" source="azUSpkt_eAWuSsv6hzU4-6" target="azUSpkt_eAWuSsv6hzU4-38" edge="1">
          <mxGeometry relative="1" as="geometry" />
        </mxCell>
        <mxCell id="azUSpkt_eAWuSsv6hzU4-6" value="app版本是&lt;br&gt;否改变" style="rhombus;whiteSpace=wrap;html=1;" parent="1" vertex="1">
          <mxGeometry x="525" y="370" width="110" height="80" as="geometry" />
        </mxCell>
        <mxCell id="azUSpkt_eAWuSsv6hzU4-17" value="" style="edgeStyle=orthogonalEdgeStyle;rounded=0;orthogonalLoop=1;jettySize=auto;html=1;" parent="1" source="azUSpkt_eAWuSsv6hzU4-8" target="azUSpkt_eAWuSsv6hzU4-16" edge="1">
          <mxGeometry relative="1" as="geometry" />
        </mxCell>
        <mxCell id="azUSpkt_eAWuSsv6hzU4-8" value="持久化缓存新版本标识，同时全局缓存版本改变状态" style="whiteSpace=wrap;html=1;" parent="1" vertex="1">
          <mxGeometry x="20" y="510" width="120" height="60" as="geometry" />
        </mxCell>
        <mxCell id="azUSpkt_eAWuSsv6hzU4-16" value="app启动" style="rounded=1;whiteSpace=wrap;html=1;" parent="1" vertex="1">
          <mxGeometry x="20" y="610" width="120" height="60" as="geometry" />
        </mxCell>
        <mxCell id="azUSpkt_eAWuSsv6hzU4-26" value="" style="edgeStyle=orthogonalEdgeStyle;rounded=0;orthogonalLoop=1;jettySize=auto;html=1;" parent="1" source="azUSpkt_eAWuSsv6hzU4-22" target="azUSpkt_eAWuSsv6hzU4-6" edge="1">
          <mxGeometry relative="1" as="geometry" />
        </mxCell>
        <mxCell id="azUSpkt_eAWuSsv6hzU4-22" value="打开RN模块" style="rounded=1;whiteSpace=wrap;html=1;" parent="1" vertex="1">
          <mxGeometry x="520" y="290" width="120" height="60" as="geometry" />
        </mxCell>
        <mxCell id="azUSpkt_eAWuSsv6hzU4-34" value="" style="edgeStyle=orthogonalEdgeStyle;rounded=0;orthogonalLoop=1;jettySize=auto;html=1;" parent="1" source="azUSpkt_eAWuSsv6hzU4-23" target="azUSpkt_eAWuSsv6hzU4-33" edge="1">
          <mxGeometry relative="1" as="geometry" />
        </mxCell>
        <mxCell id="azUSpkt_eAWuSsv6hzU4-36" style="edgeStyle=orthogonalEdgeStyle;rounded=0;orthogonalLoop=1;jettySize=auto;html=1;exitX=0.5;exitY=1;exitDx=0;exitDy=0;entryX=0.5;entryY=0;entryDx=0;entryDy=0;" parent="1" source="azUSpkt_eAWuSsv6hzU4-23" target="azUSpkt_eAWuSsv6hzU4-24" edge="1">
          <mxGeometry relative="1" as="geometry" />
        </mxCell>
        <mxCell id="azUSpkt_eAWuSsv6hzU4-23" value="是否是有预埋&lt;br&gt;RN包的模块" style="rhombus;whiteSpace=wrap;html=1;" parent="1" vertex="1">
          <mxGeometry x="525" y="470" width="110" height="80" as="geometry" />
        </mxCell>
        <mxCell id="azUSpkt_eAWuSsv6hzU4-31" value="" style="edgeStyle=orthogonalEdgeStyle;rounded=0;orthogonalLoop=1;jettySize=auto;html=1;" parent="1" source="azUSpkt_eAWuSsv6hzU4-24" target="azUSpkt_eAWuSsv6hzU4-27" edge="1">
          <mxGeometry relative="1" as="geometry" />
        </mxCell>
        <mxCell id="azUSpkt_eAWuSsv6hzU4-24" value="加载预埋包" style="rounded=0;whiteSpace=wrap;html=1;" parent="1" vertex="1">
          <mxGeometry x="526" y="570" width="109" height="50" as="geometry" />
        </mxCell>
        <mxCell id="azUSpkt_eAWuSsv6hzU4-27" value="进入RN页面" style="rounded=1;whiteSpace=wrap;html=1;" parent="1" vertex="1">
          <mxGeometry x="522.5" y="650" width="115" height="60" as="geometry" />
        </mxCell>
        <mxCell id="azUSpkt_eAWuSsv6hzU4-35" style="edgeStyle=orthogonalEdgeStyle;rounded=0;orthogonalLoop=1;jettySize=auto;html=1;entryX=1;entryY=0.5;entryDx=0;entryDy=0;" parent="1" source="azUSpkt_eAWuSsv6hzU4-33" target="azUSpkt_eAWuSsv6hzU4-27" edge="1">
          <mxGeometry relative="1" as="geometry">
            <Array as="points">
              <mxPoint x="730" y="680" />
            </Array>
          </mxGeometry>
        </mxCell>
        <mxCell id="azUSpkt_eAWuSsv6hzU4-33" value="清除该模块的缓存信息，同时请求加载热更新包" style="whiteSpace=wrap;html=1;" parent="1" vertex="1">
          <mxGeometry x="670" y="480" width="120" height="60" as="geometry" />
        </mxCell>
        <mxCell id="azUSpkt_eAWuSsv6hzU4-40" value="" style="edgeStyle=orthogonalEdgeStyle;rounded=0;orthogonalLoop=1;jettySize=auto;html=1;" parent="1" source="azUSpkt_eAWuSsv6hzU4-38" target="azUSpkt_eAWuSsv6hzU4-39" edge="1">
          <mxGeometry relative="1" as="geometry" />
        </mxCell>
        <mxCell id="azUSpkt_eAWuSsv6hzU4-44" value="" style="edgeStyle=orthogonalEdgeStyle;rounded=0;orthogonalLoop=1;jettySize=auto;html=1;" parent="1" source="azUSpkt_eAWuSsv6hzU4-38" target="azUSpkt_eAWuSsv6hzU4-43" edge="1">
          <mxGeometry relative="1" as="geometry" />
        </mxCell>
        <mxCell id="azUSpkt_eAWuSsv6hzU4-38" value="是否有缓&lt;br&gt;存包" style="rhombus;whiteSpace=wrap;html=1;" parent="1" vertex="1">
          <mxGeometry x="246.5" y="460" width="96" height="80" as="geometry" />
        </mxCell>
        <mxCell id="azUSpkt_eAWuSsv6hzU4-41" style="edgeStyle=orthogonalEdgeStyle;rounded=0;orthogonalLoop=1;jettySize=auto;html=1;entryX=0;entryY=0.5;entryDx=0;entryDy=0;" parent="1" source="azUSpkt_eAWuSsv6hzU4-39" target="azUSpkt_eAWuSsv6hzU4-27" edge="1">
          <mxGeometry relative="1" as="geometry">
            <Array as="points">
              <mxPoint x="295" y="680" />
            </Array>
          </mxGeometry>
        </mxCell>
        <mxCell id="azUSpkt_eAWuSsv6hzU4-39" value="加载缓存包" style="rounded=0;whiteSpace=wrap;html=1;" parent="1" vertex="1">
          <mxGeometry x="230" y="580" width="129" height="50" as="geometry" />
        </mxCell>
        <mxCell id="azUSpkt_eAWuSsv6hzU4-46" style="edgeStyle=orthogonalEdgeStyle;rounded=0;orthogonalLoop=1;jettySize=auto;html=1;exitX=1;exitY=0.5;exitDx=0;exitDy=0;entryX=0;entryY=0.5;entryDx=0;entryDy=0;" parent="1" source="azUSpkt_eAWuSsv6hzU4-43" target="azUSpkt_eAWuSsv6hzU4-24" edge="1">
          <mxGeometry relative="1" as="geometry" />
        </mxCell>
        <mxCell id="azUSpkt_eAWuSsv6hzU4-48" value="" style="edgeStyle=orthogonalEdgeStyle;rounded=0;orthogonalLoop=1;jettySize=auto;html=1;" parent="1" source="azUSpkt_eAWuSsv6hzU4-43" target="azUSpkt_eAWuSsv6hzU4-47" edge="1">
          <mxGeometry relative="1" as="geometry" />
        </mxCell>
        <mxCell id="azUSpkt_eAWuSsv6hzU4-43" value="是否是有预埋&lt;br style=&quot;border-color: var(--border-color);&quot;&gt;RN包的模块" style="rhombus;whiteSpace=wrap;html=1;" parent="1" vertex="1">
          <mxGeometry x="372.5" y="460" width="110" height="80" as="geometry" />
        </mxCell>
        <mxCell id="azUSpkt_eAWuSsv6hzU4-49" style="edgeStyle=orthogonalEdgeStyle;rounded=0;orthogonalLoop=1;jettySize=auto;html=1;" parent="1" source="azUSpkt_eAWuSsv6hzU4-47" edge="1">
          <mxGeometry relative="1" as="geometry">
            <mxPoint x="427.5" y="680" as="targetPoint" />
          </mxGeometry>
        </mxCell>
        <mxCell id="azUSpkt_eAWuSsv6hzU4-47" value="请求加载热更新包" style="rounded=0;whiteSpace=wrap;html=1;" parent="1" vertex="1">
          <mxGeometry x="374" y="580" width="107" height="50" as="geometry" />
        </mxCell>
        <mxCell id="azUSpkt_eAWuSsv6hzU4-50" value="是" style="text;html=1;strokeColor=none;fillColor=none;align=center;verticalAlign=middle;whiteSpace=wrap;rounded=0;" parent="1" vertex="1">
          <mxGeometry x="60" y="470" width="60" height="30" as="geometry" />
        </mxCell>
        <mxCell id="azUSpkt_eAWuSsv6hzU4-51" value="是" style="text;html=1;strokeColor=none;fillColor=none;align=center;verticalAlign=middle;whiteSpace=wrap;rounded=0;" parent="1" vertex="1">
          <mxGeometry x="570" y="450" width="60" height="30" as="geometry" />
        </mxCell>
        <mxCell id="azUSpkt_eAWuSsv6hzU4-52" value="是" style="text;html=1;strokeColor=none;fillColor=none;align=center;verticalAlign=middle;whiteSpace=wrap;rounded=0;" parent="1" vertex="1">
          <mxGeometry x="570" y="540" width="60" height="30" as="geometry" />
        </mxCell>
        <mxCell id="azUSpkt_eAWuSsv6hzU4-53" value="是" style="text;html=1;strokeColor=none;fillColor=none;align=center;verticalAlign=middle;whiteSpace=wrap;rounded=0;" parent="1" vertex="1">
          <mxGeometry x="462.5" y="470" width="60" height="30" as="geometry" />
        </mxCell>
        <mxCell id="azUSpkt_eAWuSsv6hzU4-54" value="否" style="text;html=1;strokeColor=none;fillColor=none;align=center;verticalAlign=middle;whiteSpace=wrap;rounded=0;" parent="1" vertex="1">
          <mxGeometry x="140" y="510" width="60" height="30" as="geometry" />
        </mxCell>
        <mxCell id="azUSpkt_eAWuSsv6hzU4-55" value="否" style="text;html=1;strokeColor=none;fillColor=none;align=center;verticalAlign=middle;whiteSpace=wrap;rounded=0;" parent="1" vertex="1">
          <mxGeometry x="397.5" y="380" width="60" height="30" as="geometry" />
        </mxCell>
        <mxCell id="azUSpkt_eAWuSsv6hzU4-56" value="否" style="text;html=1;strokeColor=none;fillColor=none;align=center;verticalAlign=middle;whiteSpace=wrap;rounded=0;" parent="1" vertex="1">
          <mxGeometry x="320" y="470" width="60" height="30" as="geometry" />
        </mxCell>
        <mxCell id="azUSpkt_eAWuSsv6hzU4-57" value="是" style="text;html=1;strokeColor=none;fillColor=none;align=center;verticalAlign=middle;whiteSpace=wrap;rounded=0;" parent="1" vertex="1">
          <mxGeometry x="282.5" y="540" width="60" height="30" as="geometry" />
        </mxCell>
        <mxCell id="azUSpkt_eAWuSsv6hzU4-58" value="否" style="text;html=1;strokeColor=none;fillColor=none;align=center;verticalAlign=middle;whiteSpace=wrap;rounded=0;" parent="1" vertex="1">
          <mxGeometry x="410" y="540" width="60" height="30" as="geometry" />
        </mxCell>
      </root>
    </mxGraphModel>
  </diagram>
</mxfile>
